<?xml version="1.0" encoding="utf-8"?>
<!-- Generator: Adobe Illustrator 17.0.0, SVG Export Plug-In . SVG Version: 6.00 Build 0)  -->
<!DOCTYPE svg PUBLIC "-//W3C//DTD SVG 1.1//EN" "http://www.w3.org/Graphics/SVG/1.1/DTD/svg11.dtd">
<svg version="1.1" xmlns="http://www.w3.org/2000/svg" xmlns:xlink="http://www.w3.org/1999/xlink" x="0px" y="0px"
	 width="200.151px" height="200.151px" viewBox="0 0 200.151 200.151" enable-background="new 0 0 200.151 200.151"
	 xml:space="preserve">
<g id="Layer_2">
	<rect x="0" y="0.075" fill="#E6E7E8" width="200.151" height="200"/>
</g>
<g id="icons">
	<g opacity="0.2">
		<rect x="25.101" y="25.315" fill="#D1D3D4" width="150.584" height="150.584"/>
		<g>
			<g>
				<g>
					<g>
						<g>
							<rect x="17.601" y="154.841" fill="none" width="14.998" height="13.559"/>
						</g>
						<rect x="24.57" y="155.843" fill-rule="evenodd" clip-rule="evenodd" width="1.5" height="2.517"/>
						<rect x="24.57" y="160.357" fill-rule="evenodd" clip-rule="evenodd" width="1.5" height="2.517"/>
						<rect x="24.57" y="164.856" fill-rule="evenodd" clip-rule="evenodd" width="1.5" height="2.517"/>
					</g>
				</g>
				<g>
					<g>
						<g>
							<rect x="17.601" y="141.283" fill="none" width="14.998" height="13.559"/>
						</g>
						<rect x="24.57" y="142.285" fill-rule="evenodd" clip-rule="evenodd" width="1.5" height="2.517"/>
						<rect x="24.57" y="146.798" fill-rule="evenodd" clip-rule="evenodd" width="1.5" height="2.517"/>
						<rect x="24.57" y="151.297" fill-rule="evenodd" clip-rule="evenodd" width="1.5" height="2.517"/>
					</g>
				</g>
				<g>
					<g>
						<g>
							<rect x="17.601" y="127.724" fill="none" width="14.998" height="13.559"/>
						</g>
						<rect x="24.57" y="128.726" fill-rule="evenodd" clip-rule="evenodd" width="1.5" height="2.517"/>
						<rect x="24.57" y="133.24" fill-rule="evenodd" clip-rule="evenodd" width="1.5" height="2.517"/>
						<rect x="24.57" y="137.739" fill-rule="evenodd" clip-rule="evenodd" width="1.5" height="2.517"/>
					</g>
				</g>
				<g>
					<g>
						<g>
							<rect x="17.601" y="114.166" fill="none" width="14.998" height="13.559"/>
						</g>
						<rect x="24.57" y="115.168" fill-rule="evenodd" clip-rule="evenodd" width="1.5" height="2.517"/>
						<rect x="24.57" y="119.681" fill-rule="evenodd" clip-rule="evenodd" width="1.5" height="2.517"/>
						<rect x="24.57" y="124.18" fill-rule="evenodd" clip-rule="evenodd" width="1.5" height="2.517"/>
					</g>
				</g>
				<g>
					<g>
						<g>
							<rect x="17.601" y="100.607" fill="none" width="14.998" height="13.559"/>
						</g>
						<rect x="24.57" y="101.609" fill-rule="evenodd" clip-rule="evenodd" width="1.5" height="2.517"/>
						<rect x="24.57" y="106.123" fill-rule="evenodd" clip-rule="evenodd" width="1.5" height="2.517"/>
						<rect x="24.57" y="110.622" fill-rule="evenodd" clip-rule="evenodd" width="1.5" height="2.517"/>
					</g>
				</g>
				<g>
					<g>
						<g>
							<rect x="17.601" y="87.049" fill="none" width="14.998" height="13.559"/>
						</g>
						<rect x="24.57" y="88.051" fill-rule="evenodd" clip-rule="evenodd" width="1.5" height="2.517"/>
						<rect x="24.57" y="92.564" fill-rule="evenodd" clip-rule="evenodd" width="1.5" height="2.517"/>
						<rect x="24.57" y="97.063" fill-rule="evenodd" clip-rule="evenodd" width="1.5" height="2.517"/>
					</g>
				</g>
				<g>
					<g>
						<g>
							<rect x="17.601" y="73.49" fill="none" width="14.998" height="13.559"/>
						</g>
						<rect x="24.57" y="74.492" fill-rule="evenodd" clip-rule="evenodd" width="1.5" height="2.517"/>
						<rect x="24.57" y="79.006" fill-rule="evenodd" clip-rule="evenodd" width="1.5" height="2.517"/>
						<rect x="24.57" y="83.505" fill-rule="evenodd" clip-rule="evenodd" width="1.5" height="2.517"/>
					</g>
				</g>
				<g>
					<g>
						<g>
							<rect x="17.601" y="59.932" fill="none" width="14.998" height="13.559"/>
						</g>
						<rect x="24.57" y="60.933" fill-rule="evenodd" clip-rule="evenodd" width="1.5" height="2.517"/>
						<rect x="24.57" y="65.447" fill-rule="evenodd" clip-rule="evenodd" width="1.5" height="2.517"/>
						<rect x="24.57" y="69.946" fill-rule="evenodd" clip-rule="evenodd" width="1.5" height="2.517"/>
					</g>
				</g>
				<g>
					<g>
						<g>
							<rect x="17.601" y="46.373" fill="none" width="14.998" height="13.559"/>
						</g>
						<rect x="24.57" y="47.375" fill-rule="evenodd" clip-rule="evenodd" width="1.5" height="2.517"/>
						<rect x="24.57" y="51.889" fill-rule="evenodd" clip-rule="evenodd" width="1.5" height="2.517"/>
						<rect x="24.57" y="56.388" fill-rule="evenodd" clip-rule="evenodd" width="1.5" height="2.517"/>
					</g>
				</g>
				<g>
					<g>
						<g>
							<rect x="17.601" y="32.815" fill="none" width="14.998" height="13.559"/>
						</g>
						<rect x="24.57" y="33.816" fill-rule="evenodd" clip-rule="evenodd" width="1.5" height="2.517"/>
						<rect x="24.57" y="38.33" fill-rule="evenodd" clip-rule="evenodd" width="1.5" height="2.517"/>
						<rect x="24.57" y="42.829" fill-rule="evenodd" clip-rule="evenodd" width="1.5" height="2.517"/>
					</g>
				</g>
				<g>
					<g>
						<g>
							<rect x="32.6" y="17.816" fill="none" width="13.559" height="14.999"/>
						</g>
						<rect x="42.64" y="24.785" fill-rule="evenodd" clip-rule="evenodd" width="2.517" height="1.5"/>
						<rect x="38.126" y="24.785" fill-rule="evenodd" clip-rule="evenodd" width="2.517" height="1.5"/>
						<rect x="33.627" y="24.785" fill-rule="evenodd" clip-rule="evenodd" width="2.517" height="1.5"/>
					</g>
				</g>
				<g>
					<g>
						<g>
							<rect x="46.158" y="17.816" fill="none" width="13.559" height="14.999"/>
						</g>
						<rect x="56.198" y="24.785" fill-rule="evenodd" clip-rule="evenodd" width="2.517" height="1.5"/>
						<rect x="51.685" y="24.785" fill-rule="evenodd" clip-rule="evenodd" width="2.517" height="1.5"/>
						<rect x="47.186" y="24.785" fill-rule="evenodd" clip-rule="evenodd" width="2.517" height="1.5"/>
					</g>
				</g>
				<g>
					<g>
						<g>
							<rect x="59.717" y="17.816" fill="none" width="13.559" height="14.999"/>
						</g>
						<rect x="69.757" y="24.785" fill-rule="evenodd" clip-rule="evenodd" width="2.517" height="1.5"/>
						<rect x="65.243" y="24.785" fill-rule="evenodd" clip-rule="evenodd" width="2.517" height="1.5"/>
						<rect x="60.744" y="24.785" fill-rule="evenodd" clip-rule="evenodd" width="2.517" height="1.5"/>
					</g>
				</g>
				<g>
					<g>
						<g>
							<rect x="73.275" y="17.816" fill="none" width="13.559" height="14.999"/>
						</g>
						<rect x="83.315" y="24.785" fill-rule="evenodd" clip-rule="evenodd" width="2.517" height="1.5"/>
						<rect x="78.802" y="24.785" fill-rule="evenodd" clip-rule="evenodd" width="2.517" height="1.5"/>
						<rect x="74.303" y="24.785" fill-rule="evenodd" clip-rule="evenodd" width="2.517" height="1.5"/>
					</g>
				</g>
				<g>
					<g>
						<g>
							<rect x="86.834" y="17.816" fill="none" width="13.559" height="14.999"/>
						</g>
						<rect x="96.874" y="24.785" fill-rule="evenodd" clip-rule="evenodd" width="2.517" height="1.5"/>
						<rect x="92.36" y="24.785" fill-rule="evenodd" clip-rule="evenodd" width="2.517" height="1.5"/>
						<rect x="87.861" y="24.785" fill-rule="evenodd" clip-rule="evenodd" width="2.517" height="1.5"/>
					</g>
				</g>
				<g>
					<g>
						<g>
							<rect x="100.392" y="17.816" fill="none" width="13.559" height="14.999"/>
						</g>
						<rect x="110.433" y="24.785" fill-rule="evenodd" clip-rule="evenodd" width="2.517" height="1.5"/>
						<rect x="105.919" y="24.785" fill-rule="evenodd" clip-rule="evenodd" width="2.517" height="1.5"/>
						<rect x="101.42" y="24.785" fill-rule="evenodd" clip-rule="evenodd" width="2.517" height="1.5"/>
					</g>
				</g>
				<g>
					<g>
						<g>
							<rect x="113.951" y="17.816" fill="none" width="13.559" height="14.999"/>
						</g>
						<rect x="123.991" y="24.785" fill-rule="evenodd" clip-rule="evenodd" width="2.517" height="1.5"/>
						<rect x="119.477" y="24.785" fill-rule="evenodd" clip-rule="evenodd" width="2.517" height="1.5"/>
						<rect x="114.978" y="24.785" fill-rule="evenodd" clip-rule="evenodd" width="2.517" height="1.5"/>
					</g>
				</g>
				<g>
					<g>
						<g>
							<rect x="127.51" y="17.816" fill="none" width="13.559" height="14.999"/>
						</g>
						<rect x="137.55" y="24.785" fill-rule="evenodd" clip-rule="evenodd" width="2.517" height="1.5"/>
						<rect x="133.036" y="24.785" fill-rule="evenodd" clip-rule="evenodd" width="2.517" height="1.5"/>
						<rect x="128.537" y="24.785" fill-rule="evenodd" clip-rule="evenodd" width="2.517" height="1.5"/>
					</g>
				</g>
				<g>
					<g>
						<g>
							<rect x="141.068" y="17.816" fill="none" width="13.559" height="14.999"/>
						</g>
						<rect x="151.108" y="24.785" fill-rule="evenodd" clip-rule="evenodd" width="2.517" height="1.5"/>
						<rect x="146.594" y="24.785" fill-rule="evenodd" clip-rule="evenodd" width="2.517" height="1.5"/>
						<rect x="142.095" y="24.785" fill-rule="evenodd" clip-rule="evenodd" width="2.517" height="1.5"/>
					</g>
				</g>
				<g>
					<g>
						<g>
							<rect x="154.627" y="17.816" fill="none" width="13.559" height="14.999"/>
						</g>
						<rect x="164.667" y="24.785" fill-rule="evenodd" clip-rule="evenodd" width="2.517" height="1.5"/>
						<rect x="160.153" y="24.785" fill-rule="evenodd" clip-rule="evenodd" width="2.517" height="1.5"/>
						<rect x="155.654" y="24.785" fill-rule="evenodd" clip-rule="evenodd" width="2.517" height="1.5"/>
					</g>
				</g>
				<g>
					<g>
						<g>
							<rect x="168.185" y="32.815" fill="none" width="14.999" height="13.559"/>
						</g>
						<rect x="174.715" y="42.855" fill-rule="evenodd" clip-rule="evenodd" width="1.5" height="2.517"/>
						<rect x="174.715" y="38.341" fill-rule="evenodd" clip-rule="evenodd" width="1.5" height="2.517"/>
						<rect x="174.715" y="33.842" fill-rule="evenodd" clip-rule="evenodd" width="1.5" height="2.517"/>
					</g>
				</g>
				<g>
					<g>
						<g>
							<rect x="168.185" y="46.373" fill="none" width="14.999" height="13.559"/>
						</g>
						<rect x="174.715" y="56.413" fill-rule="evenodd" clip-rule="evenodd" width="1.5" height="2.517"/>
						<rect x="174.715" y="51.9" fill-rule="evenodd" clip-rule="evenodd" width="1.5" height="2.517"/>
						<rect x="174.715" y="47.4" fill-rule="evenodd" clip-rule="evenodd" width="1.5" height="2.517"/>
					</g>
				</g>
				<g>
					<g>
						<g>
							<rect x="168.185" y="59.932" fill="none" width="14.999" height="13.559"/>
						</g>
						<rect x="174.715" y="69.972" fill-rule="evenodd" clip-rule="evenodd" width="1.5" height="2.517"/>
						<rect x="174.715" y="65.458" fill-rule="evenodd" clip-rule="evenodd" width="1.5" height="2.517"/>
						<rect x="174.715" y="60.959" fill-rule="evenodd" clip-rule="evenodd" width="1.5" height="2.517"/>
					</g>
				</g>
				<g>
					<g>
						<g>
							<rect x="168.185" y="73.49" fill="none" width="14.999" height="13.559"/>
						</g>
						<rect x="174.715" y="83.53" fill-rule="evenodd" clip-rule="evenodd" width="1.5" height="2.517"/>
						<rect x="174.715" y="79.017" fill-rule="evenodd" clip-rule="evenodd" width="1.5" height="2.517"/>
						<rect x="174.715" y="74.518" fill-rule="evenodd" clip-rule="evenodd" width="1.5" height="2.517"/>
					</g>
				</g>
				<g>
					<g>
						<g>
							<rect x="168.185" y="87.049" fill="none" width="14.999" height="13.559"/>
						</g>
						<rect x="174.715" y="97.089" fill-rule="evenodd" clip-rule="evenodd" width="1.5" height="2.517"/>
						<rect x="174.715" y="92.575" fill-rule="evenodd" clip-rule="evenodd" width="1.5" height="2.517"/>
						<rect x="174.715" y="88.076" fill-rule="evenodd" clip-rule="evenodd" width="1.5" height="2.517"/>
					</g>
				</g>
				<g>
					<g>
						<g>
							<rect x="168.185" y="100.607" fill="none" width="14.999" height="13.559"/>
						</g>
						<rect x="174.715" y="110.647" fill-rule="evenodd" clip-rule="evenodd" width="1.5" height="2.517"/>
						<rect x="174.715" y="106.134" fill-rule="evenodd" clip-rule="evenodd" width="1.5" height="2.517"/>
						<rect x="174.715" y="101.635" fill-rule="evenodd" clip-rule="evenodd" width="1.5" height="2.517"/>
					</g>
				</g>
				<g>
					<g>
						<g>
							<rect x="168.185" y="114.166" fill="none" width="14.999" height="13.559"/>
						</g>
						<rect x="174.715" y="124.206" fill-rule="evenodd" clip-rule="evenodd" width="1.5" height="2.517"/>
						<rect x="174.715" y="119.692" fill-rule="evenodd" clip-rule="evenodd" width="1.5" height="2.517"/>
						<rect x="174.715" y="115.193" fill-rule="evenodd" clip-rule="evenodd" width="1.5" height="2.517"/>
					</g>
				</g>
				<g>
					<g>
						<g>
							<rect x="168.185" y="127.724" fill="none" width="14.999" height="13.559"/>
						</g>
						<rect x="174.715" y="137.764" fill-rule="evenodd" clip-rule="evenodd" width="1.5" height="2.517"/>
						<rect x="174.715" y="133.251" fill-rule="evenodd" clip-rule="evenodd" width="1.5" height="2.517"/>
						<rect x="174.715" y="128.752" fill-rule="evenodd" clip-rule="evenodd" width="1.5" height="2.517"/>
					</g>
				</g>
				<g>
					<g>
						<g>
							<rect x="168.185" y="141.283" fill="none" width="14.999" height="13.559"/>
						</g>
						<rect x="174.715" y="151.323" fill-rule="evenodd" clip-rule="evenodd" width="1.5" height="2.517"/>
						<rect x="174.715" y="146.809" fill-rule="evenodd" clip-rule="evenodd" width="1.5" height="2.517"/>
						<rect x="174.715" y="142.31" fill-rule="evenodd" clip-rule="evenodd" width="1.5" height="2.517"/>
					</g>
				</g>
				<g>
					<g>
						<g>
							<rect x="168.185" y="154.841" fill="none" width="14.999" height="13.559"/>
						</g>
						<rect x="174.715" y="164.882" fill-rule="evenodd" clip-rule="evenodd" width="1.5" height="2.517"/>
						<rect x="174.715" y="160.368" fill-rule="evenodd" clip-rule="evenodd" width="1.5" height="2.517"/>
						<rect x="174.715" y="155.869" fill-rule="evenodd" clip-rule="evenodd" width="1.5" height="2.517"/>
					</g>
				</g>
				<g>
					<g>
						<g>
							<rect x="154.627" y="168.4" fill="none" width="13.559" height="14.998"/>
						</g>
						<rect x="155.628" y="174.93" fill-rule="evenodd" clip-rule="evenodd" width="2.517" height="1.5"/>
						<rect x="160.142" y="174.93" fill-rule="evenodd" clip-rule="evenodd" width="2.517" height="1.5"/>
						<rect x="164.641" y="174.93" fill-rule="evenodd" clip-rule="evenodd" width="2.517" height="1.5"/>
					</g>
				</g>
				<g>
					<g>
						<g>
							<rect x="141.068" y="168.4" fill="none" width="13.559" height="14.998"/>
						</g>
						<rect x="142.07" y="174.93" fill-rule="evenodd" clip-rule="evenodd" width="2.517" height="1.5"/>
						<rect x="146.584" y="174.93" fill-rule="evenodd" clip-rule="evenodd" width="2.517" height="1.5"/>
						<rect x="151.083" y="174.93" fill-rule="evenodd" clip-rule="evenodd" width="2.517" height="1.5"/>
					</g>
				</g>
				<g>
					<g>
						<g>
							<rect x="127.51" y="168.4" fill="none" width="13.559" height="14.998"/>
						</g>
						<rect x="128.511" y="174.93" fill-rule="evenodd" clip-rule="evenodd" width="2.517" height="1.5"/>
						<rect x="133.025" y="174.93" fill-rule="evenodd" clip-rule="evenodd" width="2.517" height="1.5"/>
						<rect x="137.524" y="174.93" fill-rule="evenodd" clip-rule="evenodd" width="2.517" height="1.5"/>
					</g>
				</g>
				<g>
					<g>
						<g>
							<rect x="113.951" y="168.4" fill="none" width="13.559" height="14.998"/>
						</g>
						<rect x="114.953" y="174.93" fill-rule="evenodd" clip-rule="evenodd" width="2.517" height="1.5"/>
						<rect x="119.467" y="174.93" fill-rule="evenodd" clip-rule="evenodd" width="2.517" height="1.5"/>
						<rect x="123.966" y="174.93" fill-rule="evenodd" clip-rule="evenodd" width="2.517" height="1.5"/>
					</g>
				</g>
				<g>
					<g>
						<g>
							<rect x="100.392" y="168.4" fill="none" width="13.559" height="14.998"/>
						</g>
						<rect x="101.394" y="174.93" fill-rule="evenodd" clip-rule="evenodd" width="2.517" height="1.5"/>
						<rect x="105.908" y="174.93" fill-rule="evenodd" clip-rule="evenodd" width="2.517" height="1.5"/>
						<rect x="110.407" y="174.93" fill-rule="evenodd" clip-rule="evenodd" width="2.517" height="1.5"/>
					</g>
				</g>
				<g>
					<g>
						<g>
							<rect x="86.834" y="168.4" fill="none" width="13.559" height="14.998"/>
						</g>
						<rect x="87.836" y="174.93" fill-rule="evenodd" clip-rule="evenodd" width="2.517" height="1.5"/>
						<rect x="92.349" y="174.93" fill-rule="evenodd" clip-rule="evenodd" width="2.517" height="1.5"/>
						<rect x="96.848" y="174.93" fill-rule="evenodd" clip-rule="evenodd" width="2.517" height="1.5"/>
					</g>
				</g>
				<g>
					<g>
						<g>
							<rect x="73.275" y="168.4" fill="none" width="13.559" height="14.998"/>
						</g>
						<rect x="74.277" y="174.93" fill-rule="evenodd" clip-rule="evenodd" width="2.517" height="1.5"/>
						<rect x="78.791" y="174.93" fill-rule="evenodd" clip-rule="evenodd" width="2.517" height="1.5"/>
						<rect x="83.29" y="174.93" fill-rule="evenodd" clip-rule="evenodd" width="2.517" height="1.5"/>
					</g>
				</g>
				<g>
					<g>
						<g>
							<rect x="59.717" y="168.4" fill="none" width="13.559" height="14.998"/>
						</g>
						<rect x="60.719" y="174.93" fill-rule="evenodd" clip-rule="evenodd" width="2.517" height="1.5"/>
						<rect x="65.232" y="174.93" fill-rule="evenodd" clip-rule="evenodd" width="2.517" height="1.5"/>
						<rect x="69.731" y="174.93" fill-rule="evenodd" clip-rule="evenodd" width="2.517" height="1.5"/>
					</g>
				</g>
				<g>
					<g>
						<g>
							<rect x="46.158" y="168.4" fill="none" width="13.559" height="14.998"/>
						</g>
						<rect x="47.16" y="174.93" fill-rule="evenodd" clip-rule="evenodd" width="2.517" height="1.5"/>
						<rect x="51.674" y="174.93" fill-rule="evenodd" clip-rule="evenodd" width="2.517" height="1.5"/>
						<rect x="56.173" y="174.93" fill-rule="evenodd" clip-rule="evenodd" width="2.517" height="1.5"/>
					</g>
				</g>
				<g>
					<g>
						<g>
							<rect x="32.6" y="168.4" fill="none" width="13.559" height="14.998"/>
						</g>
						<rect x="33.601" y="174.93" fill-rule="evenodd" clip-rule="evenodd" width="2.517" height="1.5"/>
						<rect x="38.115" y="174.93" fill-rule="evenodd" clip-rule="evenodd" width="2.517" height="1.5"/>
						<rect x="42.614" y="174.93" fill-rule="evenodd" clip-rule="evenodd" width="2.517" height="1.5"/>
					</g>
				</g>
				<g>
					<rect x="24.464" y="29.284" fill-rule="evenodd" clip-rule="evenodd" width="1.506" height="2.501"/>
					<polygon fill-rule="evenodd" clip-rule="evenodd" points="24.464,24.784 24.464,27.284 25.97,27.284 25.97,26.284 
						26.964,26.284 26.964,24.784 					"/>
					<rect x="28.964" y="24.784" fill-rule="evenodd" clip-rule="evenodd" width="2.5" height="1.5"/>
				</g>
				<g>
					<rect x="169.215" y="24.679" fill-rule="evenodd" clip-rule="evenodd" width="2.501" height="1.506"/>
					<polygon fill-rule="evenodd" clip-rule="evenodd" points="176.216,24.679 173.716,24.679 173.716,26.184 174.716,26.184 
						174.716,27.179 176.216,27.179 					"/>
					<rect x="174.716" y="29.179" fill-rule="evenodd" clip-rule="evenodd" width="1.5" height="2.5"/>
				</g>
				<g>
					<rect x="174.815" y="169.43" fill-rule="evenodd" clip-rule="evenodd" width="1.506" height="2.501"/>
					<polygon fill-rule="evenodd" clip-rule="evenodd" points="176.321,176.431 176.321,173.931 174.815,173.931 174.815,174.931 
						173.821,174.931 173.821,176.431 					"/>
					<rect x="169.321" y="174.931" fill-rule="evenodd" clip-rule="evenodd" width="2.5" height="1.5"/>
				</g>
				<g>
					<rect x="29.069" y="175.03" fill-rule="evenodd" clip-rule="evenodd" width="2.501" height="1.506"/>
					<polygon fill-rule="evenodd" clip-rule="evenodd" points="24.569,176.536 27.069,176.536 27.069,175.03 26.069,175.03 
						26.069,174.036 24.569,174.036 					"/>
					<rect x="24.569" y="169.536" fill-rule="evenodd" clip-rule="evenodd" width="1.5" height="2.5"/>
				</g>
			</g>
		</g>
	</g>
</g>
</svg>
