<?xml version="1.0" encoding="utf-8"?>
<!-- Generator: Adobe Illustrator 17.0.0, SVG Export Plug-In . SVG Version: 6.00 Build 0)  -->
<!DOCTYPE svg PUBLIC "-//W3C//DTD SVG 1.1//EN" "http://www.w3.org/Graphics/SVG/1.1/DTD/svg11.dtd">
<svg version="1.1" xmlns="http://www.w3.org/2000/svg" xmlns:xlink="http://www.w3.org/1999/xlink" x="0px" y="0px" width="850px"
	 height="400px" viewBox="0 0 850 400" enable-background="new 0 0 850 400" xml:space="preserve">
<g id="Layer_2">
	<rect fill="#00AEEF" stroke="#F1F2F2" stroke-miterlimit="10" width="850" height="400"/>
</g>
<g id="Layer_1">
	<g>
		<g>
			<path fill="#00AEEF" d="M562.641,361.385c0,6.627-5.373,12-12,12H280.282c-6.627,0-12-5.373-12-12V38.205c0-6.627,5.373-12,12-12
				h270.359c6.627,0,12,5.373,12,12V361.385z"/>
			<g>
				<path fill="#F1F2F2" d="M555.534,362.944c-0.138,2.571-0.663,5.136-2.558,7.032c0.013-0.013,2.185-0.307,1.885-0.307
					c-0.475,0-0.95,0-1.425,0c-2.303,0-4.606,0-6.909,0c-9.201,0-18.402,0-27.603,0c-29.713,0-59.427,0-89.14,0
					c-48.115,0-96.231,0-144.346,0c-13.811,0-10.048-22.435-10.048-31.163c0-25.156,0-50.312,0-75.467c0-61.586,0-123.172,0-184.759
					c0-13.768,0-27.536,0-41.304c0-1.416,0.236-2.756,0.612-4.123c0.33-1.202,1.069-2.361,1.947-3.239
					c-0.198,0.198-1.656,0.307-1.988,0.307c0.124,0,0.249,0,0.373,0c1.659,0,3.319,0,4.978,0c8.187,0,16.373,0,24.56,0
					c60.621,0,121.242,0,181.863,0c18.757,0,37.513,0,56.27,0c14.478,0,11.53,16.717,11.53,26.642c0,56.399,0,112.798,0,169.196
					c0,45.294,0,90.588,0,135.882C555.534,362.075,555.534,362.51,555.534,362.944c0,4.915,14.215,0.885,14.215-3.118
					c0-39.848,0-79.697,0-119.545c0-59.111,0-118.223,0-177.334c0-7.165,0-14.329,0-21.494c0-1.467,0-2.933,0-4.4
					c0-6.645-3.544-11.348-9.667-13.75c-4.191-1.644-10.336-0.813-14.724-0.813c-9.525,0-19.049,0-28.574,0
					c-61.125,0-122.251,0-183.376,0c-16.1,0-32.2,0-48.3,0c-10.849,0-23.933,6.166-23.933,18.438c0,5.212,0,10.423,0,15.635
					c0,56.399,0,112.798,0,169.196c0,45.294,0,90.588,0,135.882c0,9.229,6.176,15.459,15.579,15.459c5.565,0,11.13,0,16.695,0
					c26.078,0,52.155,0,78.233,0c55.387,0,110.774,0,166.161,0c12.466,0,31.035-1.133,31.904-17.275
					C570.005,355.051,555.755,358.83,555.534,362.944z"/>
			</g>
		</g>
		<path fill="#00AEEF" stroke="#F1F2F2" stroke-width="3" stroke-miterlimit="10" d="M367.769,158.821c0,6.627-5.373,12-12,12
			h-47.282c-6.627,0-12-5.373-12-12v-47.282c0-6.627,5.373-12,12-12h47.282c6.627,0,12,5.373,12,12V158.821z"/>
		<path fill="#00AEEF" stroke="#F1F2F2" stroke-width="3" stroke-miterlimit="10" d="M450.462,158.821c0,6.627-5.373,12-12,12
			h-47.282c-6.627,0-12-5.373-12-12v-47.282c0-6.627,5.373-12,12-12h47.282c6.627,0,12,5.373,12,12V158.821z"/>
		<path fill="#00AEEF" stroke="#F1F2F2" stroke-width="3" stroke-miterlimit="10" d="M533.205,158.821c0,6.627-5.373,12-12,12
			h-47.282c-6.627,0-12-5.373-12-12v-47.282c0-6.627,5.373-12,12-12h47.282c6.627,0,12,5.373,12,12V158.821z"/>
		<g>
			<path fill="#00AEEF" stroke="#F1F2F2" stroke-width="3" stroke-miterlimit="10" d="M367.744,240.667c0,6.627-5.373,12-12,12
				h-47.282c-6.627,0-12-5.373-12-12v-47.282c0-6.627,5.373-12,12-12h47.282c6.627,0,12,5.373,12,12V240.667z"/>
			<path fill="#00AEEF" stroke="#F1F2F2" stroke-width="3" stroke-miterlimit="10" d="M450.436,240.667c0,6.627-5.373,12-12,12
				h-47.282c-6.627,0-12-5.373-12-12v-47.282c0-6.627,5.373-12,12-12h47.282c6.627,0,12,5.373,12,12V240.667z"/>
			<path fill="#00AEEF" stroke="#F1F2F2" stroke-width="3" stroke-miterlimit="10" d="M533.18,240.667c0,6.627-5.373,12-12,12
				h-47.282c-6.627,0-12-5.373-12-12v-47.282c0-6.627,5.373-12,12-12h47.282c6.627,0,12,5.373,12,12V240.667z"/>
		</g>
		<g>
			<path fill="#00AEEF" stroke="#F1F2F2" stroke-width="3" stroke-miterlimit="10" d="M367.744,323.846c0,6.627-5.373,12-12,12
				h-47.282c-6.627,0-12-5.373-12-12v-47.282c0-6.627,5.373-12,12-12h47.282c6.627,0,12,5.373,12,12V323.846z"/>
			<path fill="#00AEEF" stroke="#F1F2F2" stroke-width="3" stroke-miterlimit="10" d="M450.436,323.846c0,6.627-5.373,12-12,12
				h-47.282c-6.627,0-12-5.373-12-12v-47.282c0-6.627,5.373-12,12-12h47.282c6.627,0,12,5.373,12,12V323.846z"/>
			<path fill="#00AEEF" stroke="#F1F2F2" stroke-width="3" stroke-miterlimit="10" d="M533.18,323.846c0,6.627-5.373,12-12,12
				h-47.282c-6.627,0-12-5.373-12-12v-47.282c0-6.627,5.373-12,12-12h47.282c6.627,0,12,5.373,12,12V323.846z"/>
		</g>
		<path fill="#00AEEF" stroke="#F1F2F2" stroke-width="3" stroke-miterlimit="10" d="M533.18,76.769c0,6.627-5.373,12-12,12H308.487
			c-6.627,0-12-5.373-12-12V51.538c0-6.627,5.373-12,12-12H521.18c6.627,0,12,5.373,12,12V76.769z"/>
	</g>
</g>
</svg>
