<?xml version="1.0" encoding="utf-8"?>
<!-- Generator: Adobe Illustrator 17.0.0, SVG Export Plug-In . SVG Version: 6.00 Build 0)  -->
<!DOCTYPE svg PUBLIC "-//W3C//DTD SVG 1.1//EN" "http://www.w3.org/Graphics/SVG/1.1/DTD/svg11.dtd">
<svg version="1.1" xmlns="http://www.w3.org/2000/svg" xmlns:xlink="http://www.w3.org/1999/xlink" x="0px" y="0px" width="850px"
	 height="400px" viewBox="0 0 850 400" enable-background="new 0 0 850 400" xml:space="preserve">
<g id="Layer_2">
	<rect fill="#8DC63F" stroke="#F1F2F2" stroke-miterlimit="10" width="850" height="400"/>
</g>
<g id="Layer_3">
	<g>
		<circle fill="#8DC63F" cx="425" cy="200" r="175.128"/>
		<path fill="#F1F2F2" d="M600.128,200c0,0-0.023,1.074-0.068,3.156c-0.022,1.041-0.05,2.333-0.083,3.869
			c0.002,1.538-0.13,3.313-0.284,5.323c-0.171,2.008-0.249,4.262-0.544,6.721c-0.295,2.459-0.573,5.152-0.951,8.051
			c-0.504,2.879-0.946,5.996-1.602,9.285c-0.347,1.642-0.705,3.335-1.074,5.079c-0.19,0.871-0.358,1.761-0.575,2.652
			c-0.234,0.887-0.472,1.786-0.712,2.697c-0.484,1.824-0.981,3.696-1.491,5.617c-0.592,1.898-1.199,3.843-1.821,5.834
			c-0.581,2.008-1.351,4-2.101,6.052c-0.769,2.044-1.47,4.171-2.401,6.253c-3.386,8.474-7.829,17.35-13.422,26.339
			c-1.329,2.294-2.919,4.466-4.431,6.744c-1.49,2.296-3.198,4.484-4.891,6.738c-1.657,2.284-3.532,4.443-5.386,6.673
			c-1.815,2.267-3.857,4.383-5.865,6.586c-4.068,4.357-8.575,8.508-13.376,12.523c-2.385,2.026-4.949,3.891-7.448,5.889
			c-2.593,1.874-5.218,3.769-7.918,5.611c-10.883,7.249-23.027,13.608-36.217,18.605c-1.626,0.685-3.329,1.182-5.005,1.772
			c-1.687,0.56-3.368,1.163-5.079,1.694c-1.724,0.49-3.455,0.981-5.192,1.475c-0.869,0.247-1.739,0.494-2.612,0.741
			c-0.879,0.223-1.767,0.414-2.653,0.623c-1.774,0.409-3.554,0.82-5.341,1.232c-1.789,0.402-3.613,0.669-5.428,1.011l-2.733,0.488
			l-1.37,0.244l-1.383,0.177c-1.846,0.235-3.698,0.47-5.556,0.706c-1.854,0.276-3.733,0.378-5.612,0.527
			c-1.881,0.137-3.766,0.301-5.66,0.415c-1.897,0.048-3.801,0.097-5.71,0.145l-2.869,0.072c-0.063,0.002-0.318,0.009-0.421,0.003
			l-0.354-0.009l-0.709-0.018l-1.42-0.036c-1.895-0.048-3.795-0.096-5.701-0.144c-1.914-0.07-3.882-0.271-5.828-0.403
			c-3.927-0.212-7.784-0.804-11.691-1.282c-7.767-1.22-15.595-2.739-23.291-5.048c-3.889-1.011-7.673-2.428-11.52-3.699
			c-1.9-0.704-3.779-1.476-5.675-2.215l-2.842-1.124l-2.791-1.261c-14.963-6.594-29.197-15.483-42.106-26.27
			c-1.59-1.377-3.182-2.756-4.776-4.137c-1.575-1.402-3.07-2.898-4.611-4.346c-0.762-0.733-1.539-1.453-2.29-2.199l-2.194-2.301
			c-1.444-1.553-2.973-3.033-4.352-4.652c-5.703-6.316-10.869-13.151-15.68-20.254c-1.158-1.806-2.317-3.615-3.478-5.425
			c-1.139-1.823-2.164-3.718-3.252-5.576c-0.531-0.937-1.085-1.861-1.599-2.809l-1.475-2.879l-1.476-2.882
			c-0.499-0.958-0.988-1.92-1.416-2.913l-2.672-5.911c-0.862-1.984-1.608-4.019-2.417-6.029c-0.391-1.01-0.809-2.011-1.177-3.03
			l-1.043-3.081l-1.043-3.083c-0.354-1.026-0.702-2.054-0.979-3.105l-1.78-6.27c-0.573-2.096-1.002-4.231-1.51-6.345l-0.729-3.181
			l-0.575-3.214c-0.361-2.146-0.814-4.279-1.098-6.438c-1.271-8.623-1.81-17.339-1.92-26.055l0.164-6.509
			c0.042-1.08,0.021-2.136,0.115-3.235l0.247-3.282l0.249-3.282c0.075-1.096,0.163-2.189,0.321-3.264l0.824-6.483
			c0.284-2.159,0.737-4.292,1.098-6.438l0.575-3.214l0.729-3.181c0.508-2.115,0.937-4.249,1.51-6.345l1.78-6.27
			c0.277-1.051,0.625-2.079,0.979-3.105l1.043-3.083l1.043-3.081c0.368-1.019,0.786-2.02,1.177-3.03
			c0.81-2.01,1.556-4.045,2.417-6.029l2.672-5.911c0.427-0.993,0.917-1.956,1.416-2.913l1.476-2.882l1.475-2.879
			c0.513-0.948,1.067-1.872,1.599-2.809c1.088-1.858,2.113-3.753,3.252-5.576c1.16-1.81,2.32-3.618,3.478-5.425
			c4.811-7.103,9.978-13.938,15.68-20.254c1.379-1.619,2.908-3.099,4.352-4.652l2.194-2.301c0.751-0.747,1.528-1.466,2.29-2.199
			c1.542-1.448,3.036-2.944,4.611-4.346c1.594-1.381,3.186-2.76,4.776-4.137c12.908-10.786,27.143-19.676,42.106-26.27l2.791-1.261
			l2.842-1.124c1.896-0.738,3.776-1.511,5.675-2.215c3.848-1.271,7.631-2.688,11.52-3.699c7.696-2.309,15.524-3.828,23.291-5.048
			c3.904-0.479,7.776-1.07,11.663-1.28c1.94-0.131,3.872-0.331,5.803-0.403c1.933-0.049,3.86-0.098,5.781-0.147l1.44-0.036
			l0.719-0.018l0.359-0.009c0.107-0.006,0.357,0.005,0.419,0.005l2.829,0.072c1.883,0.048,3.76,0.095,5.631,0.142
			c1.895,0.113,3.803,0.278,5.694,0.415c1.892,0.15,3.789,0.253,5.638,0.529c1.858,0.236,3.71,0.472,5.556,0.706l1.383,0.177
			l1.37,0.244l2.733,0.488c1.815,0.342,3.639,0.609,5.428,1.011c1.787,0.412,3.568,0.823,5.341,1.232
			c0.886,0.209,1.774,0.4,2.653,0.623c0.872,0.247,1.743,0.494,2.612,0.741c1.738,0.494,3.468,0.985,5.192,1.475
			c1.711,0.531,3.392,1.134,5.079,1.694c1.677,0.59,3.379,1.087,5.005,1.772c13.189,4.997,25.333,11.356,36.217,18.605
			c2.7,1.842,5.325,3.737,7.918,5.611c1.26,0.987,2.513,1.968,3.759,2.943c1.238,0.985,2.519,1.905,3.684,2.951
			c4.803,4.012,9.31,8.165,13.355,12.543c2.008,2.202,4.05,4.318,5.864,6.585c1.853,2.23,3.729,4.388,5.383,6.673
			c1.682,2.261,3.398,4.443,4.886,6.74c1.512,2.277,3.102,4.449,4.431,6.742c5.587,8.99,10.038,17.859,13.425,26.33
			c0.929,2.083,1.636,4.206,2.405,6.25c0.752,2.051,1.522,4.043,2.104,6.05c0.623,1.991,1.231,3.935,1.824,5.832
			c0.512,1.92,1.01,3.791,1.496,5.614c0.241,0.911,0.479,1.81,0.713,2.697c0.217,0.891,0.385,1.781,0.576,2.652
			c0.37,1.743,0.729,3.436,1.078,5.078c0.659,3.289,1.1,6.405,1.605,9.284c0.38,2.899,0.656,5.592,0.956,8.051
			c0.296,2.46,0.374,4.713,0.545,6.721c0.154,2.01,0.286,3.785,0.284,5.323c0.033,1.536,0.061,2.829,0.084,3.87
			C600.105,198.926,600.128,200,600.128,200z M600.128,200c0,0-0.031-1.074-0.091-3.155c-0.03-1.04-0.068-2.333-0.112-3.868
			c-0.01-1.537-0.154-3.311-0.323-5.319c-0.186-2.005-0.281-4.256-0.594-6.712c-0.344-2.452-0.688-5.133-1.13-8.017
			c-0.569-2.864-1.079-5.96-1.81-9.223c-0.405-1.623-0.822-3.296-1.252-5.019c-0.221-0.86-0.42-1.738-0.668-2.616
			c-0.265-0.874-0.534-1.76-0.807-2.657c-0.548-1.793-1.111-3.634-1.688-5.523c-0.676-1.855-1.369-3.755-2.078-5.701
			c-0.667-1.959-1.524-3.899-2.362-5.893c-0.852-1.988-1.651-4.049-2.68-6.059c-3.77-8.189-8.609-16.682-14.522-25.205
			c-1.4-2.184-3.058-4.24-4.635-6.396c-1.552-2.176-3.329-4.231-5.069-6.36c-1.696-2.165-3.602-4.204-5.486-6.309
			c-1.843-2.142-3.91-4.128-5.938-6.197c-4.1-4.095-8.48-8.11-13.086-12.081c-1.122-1.028-2.359-1.932-3.553-2.901
			c-1.208-0.953-2.422-1.911-3.643-2.874c-2.521-1.82-5.072-3.662-7.696-5.453c-10.578-7.045-22.379-13.223-35.194-18.079
			c-1.579-0.667-3.234-1.148-4.863-1.721c-1.639-0.544-3.272-1.131-4.935-1.647c-1.675-0.475-3.357-0.953-5.045-1.432l-2.537-0.721
			c-0.854-0.217-1.717-0.401-2.578-0.604c-1.723-0.398-3.453-0.797-5.19-1.198c-1.738-0.391-3.511-0.648-5.275-0.982l-2.656-0.475
			l-1.331-0.238l-1.344-0.171c-1.794-0.228-3.594-0.457-5.4-0.686c-1.808-0.271-3.615-0.365-5.43-0.51
			c-1.818-0.132-3.628-0.292-5.469-0.404c-1.871-0.047-3.748-0.095-5.631-0.142l-2.829-0.072c-0.174-0.002-0.16-0.009-0.29-0.003
			l-0.349,0.009l-0.699,0.018l-1.4,0.036c-1.868,0.047-3.742,0.094-5.621,0.142c-1.878,0.069-3.755,0.266-5.641,0.393
			c-3.779,0.201-7.541,0.781-11.336,1.244c-7.548,1.188-15.155,2.66-22.632,4.906c-3.78,0.98-7.454,2.362-11.194,3.593
			c-1.846,0.684-3.671,1.436-5.514,2.153l-2.762,1.091l-2.711,1.227c-14.54,6.406-28.373,15.047-40.921,25.53
			c-1.545,1.338-3.093,2.679-4.642,4.021c-1.531,1.363-2.983,2.818-4.482,4.225c-0.741,0.713-1.497,1.411-2.227,2.137l-2.132,2.237
			c-1.403,1.51-2.891,2.946-4.23,4.521c-5.544,6.139-10.563,12.784-15.241,19.687c-1.126,1.756-2.252,3.513-3.38,5.272
			c-1.108,1.771-2.102,3.614-3.16,5.419c-0.516,0.91-1.056,1.808-1.554,2.729l-1.432,2.798l-1.434,2.8
			c-0.485,0.93-0.962,1.866-1.376,2.831l-2.597,5.744c-0.838,1.928-1.561,3.906-2.348,5.858c-0.38,0.982-0.787,1.954-1.145,2.944
			l-1.012,2.994l-1.014,2.996c-0.344,0.997-0.683,1.996-0.951,3.017l-1.73,6.092c-0.557,2.037-0.972,4.111-1.466,6.166l-0.71,3.091
			l-0.557,3.123c-0.35,2.086-0.793,4.158-1.068,6.256l-0.8,6.3c-0.154,1.051-0.239,2.1-0.309,3.148l-0.239,3.145l-0.241,3.145
			c-0.093,1.043-0.072,2.14-0.114,3.207L252.372,200c0.11,8.475,0.631,16.948,1.867,25.328c0.275,2.098,0.718,4.17,1.068,6.256
			l0.557,3.123l0.71,3.091c0.494,2.055,0.909,4.129,1.466,6.166l1.73,6.092c0.268,1.021,0.607,2.02,0.951,3.017l1.014,2.996
			l1.012,2.994c0.358,0.99,0.765,1.962,1.145,2.944c0.788,1.952,1.51,3.93,2.348,5.858l2.597,5.744
			c0.414,0.965,0.891,1.901,1.376,2.831l1.434,2.8l1.432,2.798c0.499,0.921,1.038,1.819,1.554,2.729
			c1.059,1.805,2.052,3.648,3.16,5.419c1.128,1.759,2.254,3.516,3.38,5.272c4.678,6.903,9.697,13.547,15.241,19.687
			c1.339,1.575,2.828,3.011,4.23,4.521l2.132,2.237c0.73,0.726,1.486,1.424,2.227,2.137c1.499,1.407,2.95,2.862,4.482,4.225
			c1.55,1.342,3.097,2.683,4.642,4.021c12.548,10.483,26.381,19.124,40.921,25.53l2.711,1.227l2.762,1.091
			c1.843,0.716,3.668,1.469,5.514,2.153c3.74,1.231,7.414,2.613,11.194,3.593c7.477,2.246,15.084,3.718,22.632,4.906
			c3.792,0.463,7.568,1.043,11.308,1.242c1.879,0.126,3.72,0.323,5.616,0.393c1.906,0.048,3.807,0.096,5.701,0.144l1.42,0.036
			l0.709,0.018l0.354,0.009c0.133,0.006,0.114-0.005,0.287-0.005l2.789-0.071c1.857-0.047,3.707-0.093,5.552-0.14
			c1.841-0.111,3.674-0.272,5.502-0.404c1.827-0.145,3.653-0.242,5.455-0.512c1.806-0.229,3.606-0.458,5.4-0.686l1.344-0.171
			l1.331-0.238l2.656-0.475c1.764-0.333,3.536-0.591,5.275-0.982c1.736-0.401,3.466-0.8,5.19-1.198
			c0.861-0.203,1.724-0.388,2.578-0.604l2.537-0.721c1.688-0.479,3.37-0.957,5.045-1.432c1.662-0.517,3.296-1.103,4.935-1.647
			c1.629-0.573,3.284-1.054,4.863-1.721c12.815-4.856,24.616-11.035,35.194-18.079c10.628-7.005,19.751-15.172,27.953-23.335
			c8.214-8.177,15.209-16.741,21.118-25.26c5.906-8.524,10.754-17.009,14.525-25.196c1.027-2.01,1.831-4.068,2.684-6.056
			c0.839-1.994,1.697-3.932,2.365-5.891c0.71-1.945,1.404-3.845,2.081-5.699c0.579-1.887,1.144-3.728,1.693-5.52
			c0.273-0.898,0.542-1.783,0.808-2.657c0.248-0.878,0.448-1.756,0.669-2.616c0.431-1.723,0.85-3.396,1.257-5.018
			c0.734-3.262,1.243-6.359,1.814-9.222c0.444-2.884,0.785-5.565,1.134-8.016c0.314-2.456,0.408-4.706,0.595-6.711
			c0.169-2.007,0.314-3.781,0.324-5.319c0.045-1.536,0.082-2.828,0.113-3.869C600.097,201.074,600.128,200,600.128,200z"/>
	</g>
	<line fill="none" stroke="#FFFFFF" stroke-width="5" stroke-miterlimit="10" x1="425" y1="200" x2="579.436" y2="200"/>
	<line fill="none" stroke="#FFFFFF" stroke-width="7" stroke-miterlimit="10" x1="425" y1="200" x2="326.103" y2="326.051"/>
</g>
</svg>
