<?xml version="1.0" encoding="utf-8"?>
<!-- Generator: Adobe Illustrator 17.0.0, SVG Export Plug-In . SVG Version: 6.00 Build 0)  -->
<!DOCTYPE svg PUBLIC "-//W3C//DTD SVG 1.1//EN" "http://www.w3.org/Graphics/SVG/1.1/DTD/svg11.dtd">
<svg version="1.1" xmlns="http://www.w3.org/2000/svg" xmlns:xlink="http://www.w3.org/1999/xlink" x="0px" y="0px" width="200px"
	 height="200px" viewBox="0 0 200 200" enable-background="new 0 0 200 200" xml:space="preserve">
<g id="Layer_2">
</g>
<g id="icons">
	<g>
		<path fill="none" stroke="#F1F2F2" stroke-width="3" stroke-miterlimit="10" d="M100,50.374c-13.175,0-25.141,5.143-34.026,13.52
			L100,100V50.374z"/>
		<path fill="none" stroke="#F1F2F2" stroke-width="3" stroke-miterlimit="10" d="M148.537,89.646
			C143.773,67.209,123.856,50.374,100,50.374V100L148.537,89.646z"/>
		<path fill="none" stroke="#F1F2F2" stroke-width="3" stroke-miterlimit="10" d="M51.725,111.486
			c0.791,3.337,1.914,6.544,3.341,9.583L100,100L51.725,111.486z"/>
		<path fill="none" stroke="#F1F2F2" stroke-width="3" stroke-miterlimit="10" d="M65.974,63.893
			c-9.599,9.049-15.6,21.873-15.6,36.107c0,3.956,0.477,7.798,1.351,11.486L100,100L65.974,63.893z"/>
		<path fill="none" stroke="#F1F2F2" stroke-width="3" stroke-miterlimit="10" d="M148.537,89.646L100,100l36.09,34.043L100,100
			l-44.934,21.069C62.99,137.94,80.127,149.626,100,149.626c27.408,0,49.626-22.218,49.626-49.626
			C149.626,96.448,149.246,92.986,148.537,89.646z"/>
	</g>
</g>
</svg>
