<?xml version="1.0" encoding="utf-8"?>
<!-- Generator: Adobe Illustrator 17.0.0, SVG Export Plug-In . SVG Version: 6.00 Build 0)  -->
<!DOCTYPE svg PUBLIC "-//W3C//DTD SVG 1.1//EN" "http://www.w3.org/Graphics/SVG/1.1/DTD/svg11.dtd">
<svg version="1.1" xmlns="http://www.w3.org/2000/svg" xmlns:xlink="http://www.w3.org/1999/xlink" x="0px" y="0px" width="200px"
	 height="200px" viewBox="0 0 200 200" enable-background="new 0 0 200 200" xml:space="preserve">
<g id="Layer_2">
</g>
<g id="icons">
	<g>
		<g>
			<path fill="#F1F2F2" d="M149.978,101.52c0,0-0.05,1.226-0.145,3.524c-0.032,0.574-0.003,1.22-0.091,1.921
				c-0.083,0.703-0.174,1.471-0.272,2.301c-0.106,0.829-0.154,1.738-0.316,2.687c-0.179,0.948-0.37,1.955-0.572,3.019
				c-0.906,4.219-2.256,9.47-5.283,14.923c-0.325,0.714-0.792,1.349-1.209,2.036c-0.434,0.679-0.874,1.369-1.32,2.069
				c-0.432,0.716-0.982,1.352-1.514,2.022c-0.538,0.669-1.083,1.346-1.635,2.033c-0.534,0.709-1.212,1.293-1.873,1.908
				c-0.668,0.609-1.354,1.214-2.055,1.817c-0.701,0.602-1.491,1.112-2.239,1.689c-0.762,0.559-1.512,1.155-2.31,1.698
				c-6.43,4.271-14.419,7.447-23.225,8.495c-1.094,0.171-2.214,0.148-3.332,0.229c-0.56,0.028-1.122,0.056-1.685,0.084l-0.847,0.041
				c0.078,0.004-0.226,0.002-0.231-0.001l-0.101-0.005L99.522,154l-0.405-0.02c-2.178-0.139-4.283-0.11-6.701-0.564
				c-4.764-0.58-9.234-2.04-13.704-3.92c-1.088-0.524-2.181-1.051-3.278-1.58c-1.089-0.542-2.101-1.238-3.159-1.857l-1.574-0.959
				c-0.503-0.353-0.99-0.732-1.487-1.098c-0.978-0.752-2.006-1.452-2.949-2.259c-3.804-3.21-7.144-7.018-10.018-11.194
				c-2.8-4.238-4.944-8.922-6.51-13.81l-0.961-3.733l-0.236-0.935l-0.147-0.953l-0.292-1.908l-0.289-1.909
				c-0.115-0.635-0.09-1.283-0.141-1.924l-0.189-3.984l0.186-3.676c0.05-0.624,0.02-1.199,0.135-1.863l0.29-1.956l0.297-1.954
				l0.151-0.976l0.236-0.936l0.961-3.733c1.566-4.888,3.71-9.571,6.51-13.81c2.874-4.177,6.214-7.984,10.018-11.194
				c0.943-0.807,1.971-1.506,2.949-2.259c0.497-0.366,0.984-0.745,1.487-1.098l1.574-0.959c1.059-0.618,2.07-1.314,3.159-1.857
				c1.097-0.529,2.19-1.055,3.278-1.58c4.438-1.876,9.01-3.35,13.633-3.911c2.289-0.449,4.597-0.439,6.862-0.577l0.425-0.021
				l0.212-0.01l0.106-0.005c0.009-0.004,0.308,0.008,0.229,0.006l0.807,0.041c0.537,0.027,1.072,0.054,1.606,0.081
				c0.534,0.027,1.065,0.054,1.595,0.081c0.532,0.03,1.045,0.032,1.621,0.138c1.121,0.168,2.235,0.335,3.34,0.501
				c0.548,0.094,1.113,0.149,1.641,0.277c0.525,0.134,1.048,0.268,1.57,0.401c1.042,0.269,2.076,0.536,3.102,0.8
				c1.003,0.337,1.985,0.715,2.965,1.068c1.99,0.639,3.798,1.617,5.615,2.476c0.924,0.403,1.758,0.952,2.603,1.459
				c0.842,0.513,1.676,1.02,2.502,1.522c1.564,1.13,3.088,2.256,4.545,3.392c1.384,1.221,2.8,2.369,3.907,3.745
				c0.552,0.686,1.096,1.363,1.633,2.032c0.531,0.67,1.082,1.305,1.512,2.022c0.445,0.7,0.883,1.391,1.315,2.071
				c0.417,0.686,0.885,1.321,1.209,2.034c3.023,5.449,4.384,10.69,5.302,14.905c0.204,1.063,0.396,2.07,0.578,3.016
				c0.165,0.947,0.21,1.853,0.32,2.682c0.099,0.83,0.191,1.597,0.275,2.301c0.089,0.702,0.06,1.35,0.093,1.924
				C149.927,100.293,149.978,101.52,149.978,101.52z M149.978,101.52c0,0-0.073-1.225-0.21-3.521
				c-0.055-0.572-0.052-1.216-0.168-1.913c-0.129-0.694-0.27-1.452-0.423-2.271c-0.168-0.815-0.306-1.698-0.551-2.617
				c-0.295-0.905-0.608-1.867-0.939-2.883c-1.42-4.004-3.703-8.703-7.378-13.208c-0.395-0.603-0.931-1.122-1.413-1.688
				c-0.492-0.555-0.991-1.119-1.498-1.691c-0.471-0.597-1.053-1.114-1.614-1.658c-0.562-0.541-1.131-1.089-1.707-1.644
				c-0.551-0.577-1.22-1.046-1.818-1.6c-0.605-0.548-1.208-1.112-1.81-1.695c-1.28-1.073-2.678-2.071-4.086-3.103
				c-0.747-0.453-1.503-0.911-2.265-1.374c-0.764-0.46-1.515-0.962-2.354-1.321c-1.646-0.77-3.276-1.668-5.078-2.237
				c-0.886-0.318-1.773-0.663-2.679-0.971c-0.928-0.238-1.863-0.477-2.805-0.719c-0.471-0.122-0.944-0.244-1.418-0.367
				c-0.474-0.117-0.947-0.154-1.422-0.236c-0.95-0.148-1.907-0.297-2.87-0.447c-0.462-0.099-1.01-0.103-1.538-0.133
				c-0.53-0.027-1.062-0.054-1.595-0.081c-0.534-0.027-1.069-0.054-1.606-0.081l-0.807-0.041l-0.646,0.036
				c-2.051,0.134-4.144,0.108-6.213,0.525c-4.185,0.497-8.311,1.845-12.327,3.533c-0.984,0.474-1.973,0.95-2.965,1.428
				c-0.987,0.488-1.897,1.126-2.856,1.682l-1.427,0.864c-0.455,0.321-0.894,0.666-1.343,0.998c-0.883,0.683-1.818,1.31-2.671,2.042
				c-3.443,2.907-6.461,6.358-9.068,10.133c-2.532,3.836-4.464,8.073-5.887,12.489l-0.867,3.375l-0.216,0.844l-0.126,0.84
				l-0.257,1.68l-0.265,1.68c-0.108,0.544-0.083,1.206-0.131,1.803l-0.186,3.676c0.008-0.216,0.006,0.003,0.009-0.017l0.006,0.109
				l0.012,0.218l0.023,0.437l0.045,0.873l0.088,1.747c0.047,0.58,0.017,1.169,0.125,1.742l0.266,1.726l0.262,1.726l0.13,0.863
				l0.217,0.845l0.867,3.375c1.423,4.416,3.355,8.652,5.887,12.489c2.607,3.775,5.626,7.226,9.068,10.133
				c0.853,0.731,1.788,1.358,2.671,2.042c0.449,0.332,0.889,0.677,1.343,0.998l1.427,0.864c0.959,0.556,1.869,1.194,2.856,1.682
				c0.992,0.478,1.981,0.954,2.965,1.428l0.737,0.357l0.767,0.28l1.529,0.558c1.022,0.355,2.012,0.799,3.066,1.016
				c1.039,0.268,2.073,0.534,3.102,0.799c1.028,0.254,2.043,0.333,3.055,0.514c1.939,0.41,4.235,0.404,6.374,0.537l0.405,0.02
				l0.202,0.01l0.101,0.005c0.062,0.004-0.175-0.008-0.029-0.006l0.767-0.04l1.526-0.078c1.012-0.076,2.028-0.045,3.017-0.204
				c7.965-0.955,15.181-3.819,21.004-7.681c1.41-1.029,2.803-2.034,4.081-3.108c1.184-1.186,2.448-2.22,3.606-3.315
				c0.576-0.555,1.145-1.102,1.706-1.643c0.56-0.544,1.143-1.06,1.612-1.658c0.974-1.163,2.048-2.218,2.906-3.378
				c3.67-4.502,5.965-9.19,7.396-13.19c0.333-1.015,0.649-1.976,0.945-2.881c0.248-0.917,0.383-1.798,0.556-2.612
				c0.154-0.819,0.296-1.577,0.426-2.271c0.117-0.697,0.114-1.344,0.17-1.916C149.905,102.744,149.978,101.52,149.978,101.52z"/>
		</g>
		<line fill="none" stroke="#F1F2F2" stroke-width="4" stroke-miterlimit="10" x1="99.978" y1="101.52" x2="144.07" y2="101.52"/>
		<line fill="none" stroke="#F1F2F2" stroke-width="4" stroke-miterlimit="10" x1="99.978" y1="101.52" x2="71.742" y2="137.508"/>
	</g>
	<ellipse fill="none" stroke="#F1F2F2" stroke-width="3" stroke-miterlimit="10" cx="100.09" cy="43.122" rx="18.934" ry="6.398"/>
</g>
</svg>
