<?xml version="1.0" encoding="utf-8"?>
<!-- Generator: Adobe Illustrator 17.0.0, SVG Export Plug-In . SVG Version: 6.00 Build 0)  -->
<!DOCTYPE svg PUBLIC "-//W3C//DTD SVG 1.1//EN" "http://www.w3.org/Graphics/SVG/1.1/DTD/svg11.dtd">
<svg version="1.1" xmlns="http://www.w3.org/2000/svg" xmlns:xlink="http://www.w3.org/1999/xlink" x="0px" y="0px" width="200px"
	 height="200px" viewBox="0 0 200 200" style="enable-background:new 0 0 200 200;" xml:space="preserve">
<style type="text/css">
	.Drop_x0020_Shadow{fill:none;}
	.Round_x0020_Corners_x0020_2_x0020_pt{fill:#FFFFFF;stroke:#000000;stroke-miterlimit:10;}
	.Live_x0020_Reflect_x0020_X{fill:none;}
	.Bevel_x0020_Soft{fill:url(#SVGID_1_);}
	.Dusk{fill:#FFFFFF;}
	.Foliage_GS{fill:#FFDD00;}
	.Pompadour_GS{fill-rule:evenodd;clip-rule:evenodd;fill:#44ADE2;}
	.st0{fill:#F1F2F2;}
	.st1{fill:none;stroke:#F1F2F2;stroke-width:4;stroke-miterlimit:10;}
	.st2{fill:none;stroke:#F1F2F2;stroke-miterlimit:10;}
	.st3{fill:none;stroke:#F1F2F2;stroke-width:3;stroke-miterlimit:10;}
</style>
<linearGradient id="SVGID_1_" gradientUnits="userSpaceOnUse" x1="-150.4817" y1="124.3826" x2="-149.7746" y2="125.0898">
	<stop  offset="0" style="stop-color:#DEDFE3"/>
	<stop  offset="0.1738" style="stop-color:#D8D9DD"/>
	<stop  offset="0.352" style="stop-color:#C9CACD"/>
	<stop  offset="0.5323" style="stop-color:#B4B5B8"/>
	<stop  offset="0.7139" style="stop-color:#989A9C"/>
	<stop  offset="0.8949" style="stop-color:#797C7E"/>
	<stop  offset="1" style="stop-color:#656B6C"/>
</linearGradient>
<g id="Layer_2">
</g>
<g id="icon">
	<g>
		<g>
			<path class="st0" d="M150.199,147.867c0,0-0.011,0.096-0.034,0.284c-0.016,0.187-0.038,0.466-0.205,0.858
				c-0.28,0.739-1.047,1.767-2.5,2.25c-0.716,0.253-1.583,0.259-2.453,0.253c-0.887,0-1.856,0-2.902,0c-2.093,0-4.499,0-7.194,0
				s-5.678,0-8.926,0c-3.248,0.029-6.761,0.061-10.514,0.095c-7.507,0.087-15.976,0.184-25.215,0.291
				c-9.239,0.105-19.248,0.219-29.835,0.34c-1.323,0.014-2.656,0.027-3.997,0.041c-0.67,0.007-1.343,0.014-2.018,0.021l-0.253,0.003
				c0.034,0.004-0.188-0.003-0.212-0.007l-0.126-0.01l-0.506-0.038c-0.348-0.039-0.867-0.171-1.255-0.305
				c-0.774-0.308-1.506-0.774-2.079-1.446c-0.542-0.685-0.966-1.544-0.99-2.483c-0.04-1.46-0.026-2.78-0.041-4.189
				c-0.034-5.558-0.068-11.236-0.104-17.011c-0.137-23.158-0.283-47.86-0.429-72.561l0.064-0.574
				c0.008-0.054,0.005-0.083,0.022-0.156l0.067-0.248c0.047-0.166,0.1-0.332,0.159-0.495c0.112-0.355,0.262-0.595,0.414-0.83
				c0.152-0.242,0.303-0.489,0.503-0.678c0.731-0.856,1.704-1.382,2.7-1.676c0.502-0.165,1.016-0.219,1.532-0.252
				c0.488-0.031,0.798-0.014,1.206-0.023l2.308-0.018c3.077-0.024,6.15-0.047,9.218-0.071c6.135-0.047,12.247-0.094,18.31-0.141
				c12.126-0.068,24.06-0.135,35.609-0.199c5.774,0.018,11.453,0.036,17.011,0.054c2.779,0.009,5.528,0.017,8.244,0.026l0.127,0
				c0.387,0.015,0.18,0.011,0.299,0.017l0.253,0.023c0.181,0.02,0.309,0.019,0.534,0.056c0.524,0.121,1.144,0.242,1.55,0.466
				c0.911,0.358,1.717,1.034,2.366,1.84c0.636,0.846,1.008,1.932,1.035,3.037c-0.006,0.67-0.013,1.338-0.019,2.004
				c-0.093,10.586-0.318,20.595-0.552,29.835c-0.223,9.239-0.428,17.708-0.61,25.215c-0.198,7.507-0.315,14.051-0.39,19.441
				c-0.109,10.779-0.172,16.938-0.172,16.938L150.199,147.867z M149.8,147.844c0,0-0.062-6.159-0.172-16.938
				c-0.075-5.389-0.193-11.934-0.39-19.441c-0.182-7.507-0.386-15.976-0.61-25.215c-0.234-9.239-0.458-19.248-0.552-29.835
				c-0.008-0.657-0.016-1.317-0.024-1.979c-0.042-0.228-0.098-0.451-0.276-0.682c-0.211-0.202-0.443-0.459-0.81-0.569
				c-0.187-0.113-0.26-0.055-0.378-0.139c-0.107-0.023-0.32-0.03-0.475-0.046l-0.253-0.021c0.035,0.001-0.257-0.016,0.045-0.001
				l-0.127,0c-2.716,0.009-5.465,0.017-8.244,0.026c-5.558,0.018-11.236,0.036-17.011,0.054
				c-11.549-0.065-23.483-0.131-35.609-0.199c-6.063-0.047-12.174-0.094-18.31-0.141c-3.068-0.024-6.141-0.047-9.218-0.071
				l-2.308-0.018c-0.361,0.002-0.822-0.018-1.101,0.003c-0.253,0.018-0.506,0.027-0.74,0.11c-0.468,0.127-0.918,0.36-1.186,0.687
				c-0.094,0.067-0.13,0.16-0.186,0.242c-0.064,0.085-0.122,0.169-0.113,0.19c-0.008,0.017-0.021,0.032-0.039,0.047l-0.032,0.023
				c-0.011,0.018-0.013,0.087-0.02,0.128l-0.072,0.573c-0.146,24.573-0.292,49.147-0.429,72.184
				c-0.035,5.774-0.07,11.453-0.104,17.011c-0.002,1.369-0.031,2.816-0.011,4.101c-0.004,0.455,0.215,0.879,0.495,1.267
				c0.314,0.376,0.751,0.667,1.233,0.871c0.763,0.368,2.37,0.233,3.653,0.279c1.341,0.014,2.673,0.027,3.997,0.041
				c10.586,0.121,20.595,0.235,29.835,0.34c9.239,0.107,17.708,0.204,25.215,0.291c3.753,0.034,7.266,0.066,10.514,0.095
				c3.248,0,6.232,0,8.926,0c2.695,0,5.101,0,7.194,0c1.047,0,2.015,0,2.902,0c0.899,0.006,1.668-0.002,2.327-0.232
				c1.327-0.437,2.013-1.386,2.247-2c0.052-0.162,0.125-0.286,0.145-0.424c0.017-0.14,0.03-0.257,0.042-0.351
				c0.022-0.188,0.034-0.284,0.034-0.284L149.8,147.844z"/>
		</g>
		<path class="st2" d="M83.798,89.301c0,1.915-1.825,3.468-4.077,3.468H63.659c-2.251,0-4.077-1.553-4.077-3.468V75.637
			c0-1.915,1.825-3.468,4.077-3.468h16.063c2.251,0,4.077,1.553,4.077,3.468V89.301z"/>
		<path class="st2" d="M111.89,89.301c0,1.915-1.825,3.468-4.077,3.468H91.751c-2.251,0-4.077-1.553-4.077-3.468V75.637
			c0-1.915,1.825-3.468,4.077-3.468h16.063c2.251,0,4.077,1.553,4.077,3.468V89.301z"/>
		<path class="st2" d="M140,89.301c0,1.915-1.825,3.468-4.077,3.468h-16.063c-2.251,0-4.077-1.553-4.077-3.468V75.637
			c0-1.915,1.825-3.468,4.077-3.468h16.063c2.251,0,4.077,1.553,4.077,3.468V89.301z"/>
		<g>
			<path class="st2" d="M83.789,112.955c0,1.915-1.825,3.468-4.077,3.468H63.65c-2.251,0-4.077-1.553-4.077-3.468V99.291
				c0-1.915,1.825-3.468,4.077-3.468h16.063c2.251,0,4.077,1.553,4.077,3.468V112.955z"/>
			<path class="st2" d="M111.882,112.955c0,1.915-1.825,3.468-4.077,3.468H91.742c-2.251,0-4.077-1.553-4.077-3.468V99.291
				c0-1.915,1.825-3.468,4.077-3.468h16.063c2.251,0,4.077,1.553,4.077,3.468V112.955z"/>
			<path class="st2" d="M139.991,112.955c0,1.915-1.825,3.468-4.077,3.468h-16.063c-2.251,0-4.077-1.553-4.077-3.468V99.291
				c0-1.915,1.825-3.468,4.077-3.468h16.063c2.251,0,4.077,1.553,4.077,3.468V112.955z"/>
		</g>
		<g>
			<path class="st2" d="M83.789,136.995c0,1.915-1.825,3.468-4.077,3.468H63.65c-2.251,0-4.077-1.553-4.077-3.468V123.33
				c0-1.915,1.825-3.468,4.077-3.468h16.063c2.251,0,4.077,1.553,4.077,3.468V136.995z"/>
			<path class="st2" d="M111.882,136.995c0,1.915-1.825,3.468-4.077,3.468H91.742c-2.251,0-4.077-1.553-4.077-3.468V123.33
				c0-1.915,1.825-3.468,4.077-3.468h16.063c2.251,0,4.077,1.553,4.077,3.468V136.995z"/>
			<path class="st2" d="M139.991,136.995c0,1.915-1.825,3.468-4.077,3.468h-16.063c-2.251,0-4.077-1.553-4.077-3.468V123.33
				c0-1.915,1.825-3.468,4.077-3.468h16.063c2.251,0,4.077,1.553,4.077,3.468V136.995z"/>
		</g>
		<path class="st2" d="M139.991,65.588c0,1.915-1.825,3.468-4.077,3.468H63.659c-2.251,0-4.077-1.553-4.077-3.468v-7.292
			c0-1.915,1.825-3.468,4.077-3.468h72.256c2.251,0,4.077,1.553,4.077,3.468V65.588z"/>
	</g>
</g>
</svg>
