<?xml version="1.0" encoding="utf-8"?>
<!-- Generator: Adobe Illustrator 17.0.0, SVG Export Plug-In . SVG Version: 6.00 Build 0)  -->
<!DOCTYPE svg PUBLIC "-//W3C//DTD SVG 1.1//EN" "http://www.w3.org/Graphics/SVG/1.1/DTD/svg11.dtd">
<svg version="1.1" xmlns="http://www.w3.org/2000/svg" xmlns:xlink="http://www.w3.org/1999/xlink" x="0px" y="0px" width="200px"
	 height="200px" viewBox="0 0 200 200" style="enable-background:new 0 0 200 200;" xml:space="preserve">
<style type="text/css">
	.Drop_x0020_Shadow{fill:none;}
	.Round_x0020_Corners_x0020_2_x0020_pt{fill:#FFFFFF;stroke:#000000;stroke-miterlimit:10;}
	.Live_x0020_Reflect_x0020_X{fill:none;}
	.Bevel_x0020_Soft{fill:url(#SVGID_1_);}
	.Dusk{fill:#FFFFFF;}
	.Foliage_GS{fill:#FFDD00;}
	.Pompadour_GS{fill-rule:evenodd;clip-rule:evenodd;fill:#44ADE2;}
	.st0{fill:#F1F2F2;}
	.st1{fill:none;stroke:#F1F2F2;stroke-width:4;stroke-miterlimit:10;}
	.st2{fill:none;stroke:#F1F2F2;stroke-miterlimit:10;}
	.st3{fill:none;stroke:#F1F2F2;stroke-width:3;stroke-miterlimit:10;}
</style>
<linearGradient id="SVGID_1_" gradientUnits="userSpaceOnUse" x1="-359.698" y1="124.3826" x2="-358.9909" y2="125.0898">
	<stop  offset="0" style="stop-color:#DEDFE3"/>
	<stop  offset="0.1738" style="stop-color:#D8D9DD"/>
	<stop  offset="0.352" style="stop-color:#C9CACD"/>
	<stop  offset="0.5323" style="stop-color:#B4B5B8"/>
	<stop  offset="0.7139" style="stop-color:#989A9C"/>
	<stop  offset="0.8949" style="stop-color:#797C7E"/>
	<stop  offset="1" style="stop-color:#656B6C"/>
</linearGradient>
<g id="Layer_2">
</g>
<g id="icon">
	<g>
		<g>
			<path class="st0" d="M147.299,126.555c-3.775,2.475-7.526,4.99-11.32,7.432l-11.36,7.365l-11.365,7.358
				c-1.902,1.213-3.869,2.318-5.809,3.467l-5.804,3.475l-0.743,0.445l-0.757-0.421l-47.299-26.303l-0.757-0.421l-0.014-0.866
				l-0.871-54.113l-0.014-0.866l0.743-0.445l46.428-27.811l0.743-0.445l0.757,0.421l47.299,26.303l0.757,0.421l0.014,0.866
				l0.109,6.764l0.084,3.382c0.032,1.127,0.037,2.255,0.025,3.383l-0.26,13.536l-0.26,13.536L147.299,126.555z M147.299,126.555
				l-0.762-13.52l-0.695-13.521l-0.695-13.521c-0.048-1.127-0.079-2.254-0.084-3.382l-0.025-3.383l-0.109-6.764l0.771,1.287
				L98.401,47.45l1.5-0.024L53.472,75.236l0.729-1.311l0.871,54.113l-0.771-1.287l47.299,26.303l-1.5,0.024l5.803-3.477
				c1.929-1.168,3.831-2.381,5.798-3.485l11.85-6.548l11.854-6.54C139.348,130.835,143.336,128.715,147.299,126.555z"/>
		</g>
		<g>
			<path class="st0" d="M132.897,118.247L101.42,137.57l-0.266,0.163l-0.284-0.154l-32.376-17.604l-0.45-0.245l-0.013-0.528
				l-0.893-36.841l-0.016-0.665l0.599-0.384c2.587-1.658,5.197-3.276,7.805-4.899c2.603-1.63,5.215-3.247,7.844-4.833
				c5.253-3.183,10.479-6.41,15.763-9.54l0.791-0.469l0.8,0.443c5.372,2.977,10.708,6.019,16.059,9.035
				c5.328,3.056,10.671,6.086,15.977,9.181l0.637,0.371l0.001,0.694c0.012,6.142-0.088,12.287-0.138,18.43
				c-0.019,3.072-0.072,6.144-0.142,9.216c-0.061,3.072-0.117,6.145-0.219,9.217L132.897,118.247z M132.596,118.078
				c-0.198-3.04-0.352-6.08-0.511-9.12c-0.168-3.069-0.321-6.137-0.438-9.207c-0.247-6.139-0.545-12.276-0.73-18.416l0.638,1.065
				c-5.429-2.875-10.822-5.815-16.229-8.729c-5.385-2.954-10.784-5.882-16.147-8.875l1.591-0.026
				c-5.254,3.182-10.565,6.267-15.85,9.396c-2.639,1.57-5.297,3.109-7.962,4.635c-2.661,1.533-5.32,3.071-8.002,4.569l0.583-1.049
				l0.293,36.851l-0.462-0.772l32.036,18.216l-0.55,0.009L132.596,118.078z"/>
		</g>
		<line class="st2" x1="68.338" y1="82.342" x2="52.701" y2="73.949"/>
		<line class="st2" x1="68.931" y1="119.188" x2="53.572" y2="128.063"/>
		<line class="st2" x1="101.137" y1="137.098" x2="100.871" y2="154.365"/>
		<line class="st2" x1="132.75" y1="118.162" x2="147.299" y2="126.555"/>
		<line class="st2" x1="132.158" y1="81.315" x2="146.428" y2="72.441"/>
		<line class="st2" x1="99.951" y1="63.406" x2="99.224" y2="45.635"/>
	</g>
</g>
</svg>
